# xmcd CD database file
#
# Track frame offsets:
#	150
#	23413
#	50923
#	66283
#	83300
#	118193
#	141410
#	164695
#
# Disc length: 2419 seconds
#
# Revision: 3
# Processed by: cddbd v1.5.2PL0 Copyright (c) Steve Scherf et al.
# Submitted via: CDex 1.70beta2
#
DISCID=6c097108
DTITLE=Cacophony - Go Off!
DYEAR=1988
DGENRE=Heavy Metal
TTITLE0=X-Ray Eyes
TTITLE1=E.S.P.
TTITLE2=Stranger
TTITLE3=Go off!
TTITLE4=Black Cat
TTITLE5=Sword of the Warrior
TTITLE6=Floating World
TTITLE7=Images
EXTD=YEAR: 1988
EXTT0=
EXTT1=
EXTT2=
EXTT3=
EXTT4=
EXTT5=
EXTT6=
EXTT7=
PLAYORDER=
